<svg viewBox="0 0 32 32" xmlns="http://www.w3.org/2000/svg"><path d="m8 5c-1.644531 0-3 1.355469-3 3v19h14v-7h2v4c0 1.644531 1.355469 3 3 3s3-1.355469 3-3v-10.1875c0-.796875-.3125-1.53125-.875-2.09375l-4.71875-4.71875-1.40625 1.40625 2.84375 2.84375c-1.074219.457031-1.84375 1.515625-1.84375 2.75 0 1.644531 1.355469 3 3 3 .351563 0 .683594-.074219 1-.1875v7.1875c0 .566406-.433594 1-1 1s-1-.433594-1-1v-4c0-1.09375-.90625-2-2-2h-2v-10c0-1.644531-1.355469-3-3-3zm0 2h8c.566406 0 1 .433594 1 1v4h-10v-4c0-.566406.433594-1 1-1zm16 6c.5625 0 1 .4375 1 1s-.4375 1-1 1-1-.4375-1-1 .4375-1 1-1zm-17 1h10v11h-10z"/></svg>