<svg viewBox="0 0 400 300" xmlns="http://www.w3.org/2000/svg"><rect fill="#68e1fd" height="20.63" rx="6.48" width="175.95" x="107.13" y="81.37"/><path d="m276.61 103h-163a7.49 7.49 0 0 1 -7.48-7.48v-7.67a7.49 7.49 0 0 1 7.48-7.48h163a7.49 7.49 0 0 1 7.47 7.48v7.67a7.48 7.48 0 0 1 -7.47 7.48zm-163-20.63a5.49 5.49 0 0 0 -5.48 5.48v7.67a5.49 5.49 0 0 0 5.48 5.48h163a5.48 5.48 0 0 0 5.47-5.48v-7.67a5.48 5.48 0 0 0 -5.47-5.48z" fill="#093f68"/><path d="m115 102h160.23a0 0 0 0 1 0 0v97.63a6.38 6.38 0 0 1 -6.38 6.38h-147.48a6.38 6.38 0 0 1 -6.38-6.38v-97.63a0 0 0 0 1 .01 0z" fill="#68e1fd"/><path d="m268.85 207h-147.48a7.38 7.38 0 0 1 -7.38-7.37v-97.63a1 1 0 0 1 1-1h160.24a1 1 0 0 1 1 1v97.63a7.38 7.38 0 0 1 -7.38 7.37zm-152.85-104v96.63a5.38 5.38 0 0 0 5.38 5.37h147.47a5.39 5.39 0 0 0 5.38-5.37v-96.63z" fill="#093f68"/><path d="m207.48 81.37v44.96l-4.13-4.35-4.12 4.35-4.12-4.35-4.12 4.35-4.13-4.35-4.12 4.35v-44.96z" fill="#ffbc0e"/><path d="m182.74 127.33a1 1 0 0 1 -.37-.07 1 1 0 0 1 -.63-.93v-45a1 1 0 0 1 1-1h24.74a1 1 0 0 1 1 1v45a1 1 0 0 1 -1.73.69l-3.4-3.59-3.35 3.57a1 1 0 0 1 -.72.31 1 1 0 0 1 -.73-.31l-3.39-3.59-3.4 3.59a1 1 0 0 1 -1.45 0l-3.4-3.59-3.44 3.59a1 1 0 0 1 -.73.33zm4.12-6.35a1 1 0 0 1 .72.31l3.4 3.59 3.41-3.59a1 1 0 0 1 .72-.31 1 1 0 0 1 .73.31l3.39 3.59 3.4-3.59a1 1 0 0 1 1.45 0l2.4 2.53v-41.45h-22.74v41.45l2.39-2.53a1 1 0 0 1 .73-.31z" fill="#093f68"/><path d="m162.64 192.12h-33.76a1 1 0 0 1 -1-1v-23.72a1 1 0 0 1 1-1h33.76a1 1 0 0 1 1 1v23.72a1 1 0 0 1 -1 1zm-32.76-2h31.76v-21.72h-31.76z" fill="#093f68"/><path d="m161.93 160.49h-32.35a1 1 0 0 1 0-2h32.35a1 1 0 0 1 0 2z" fill="#093f68"/><path d="m289.26 218.63h-74.91a3.61 3.61 0 0 1 -3.61-3.61v-71.33l16.45-19.47h62.07a3.61 3.61 0 0 1 3.61 3.61v87.17a3.61 3.61 0 0 1 -3.61 3.63z" fill="#fff"/><path d="m289.26 219.63h-74.91a4.62 4.62 0 0 1 -4.61-4.61v-71.33a1 1 0 0 1 .26-.69l16.45-19.46a1 1 0 0 1 .76-.36h62.07a4.62 4.62 0 0 1 4.61 4.61v87.21a4.62 4.62 0 0 1 -4.63 4.63zm-77.52-75.58v71a2.61 2.61 0 0 0 2.61 2.61h74.91a2.61 2.61 0 0 0 2.61-2.61v-87.22a2.61 2.61 0 0 0 -2.61-2.61h-61.6z" fill="#093f68"/><path d="m210.74 143.69h12.85a3.61 3.61 0 0 0 3.6-3.61v-15.86z" fill="#fff"/><path d="m223.59 144.69h-12.85a1 1 0 0 1 -.74-1.69l16.45-19.46a1 1 0 0 1 1.76.64v15.86a4.61 4.61 0 0 1 -4.62 4.65zm-10.69-2h10.69a2.61 2.61 0 0 0 2.6-2.61v-13.08z" fill="#093f68"/><path d="m242.62 175.82-14.43-15.89a3 3 0 0 1 .2-4.22l4-3.65a3 3 0 0 1 4.22.2l8.69 9.57 23.94-22.25a3 3 0 0 1 4.22.15l3.69 4a3 3 0 0 1 -.15 4.23l-30.18 28.04a3 3 0 0 1 -4.2-.18z" fill="#70cc40"/><path d="m244.81 177.78h-.17a3.91 3.91 0 0 1 -2.76-1.29l-14.43-15.89a4 4 0 0 1 .27-5.63l4-3.65a4 4 0 0 1 5.63.27l8 8.82 23.2-21.56a4 4 0 0 1 5.64.2l3.69 4a4 4 0 0 1 -.21 5.64l-30.17 28.04a4 4 0 0 1 -2.69 1.05zm-10.4-25.49a2 2 0 0 0 -1.34.51l-4 3.65a2 2 0 0 0 -.13 2.8l14.43 15.89a2 2 0 0 0 2.78.12l30.19-28.07a2 2 0 0 0 .63-1.38 2 2 0 0 0 -.53-1.43l-3.69-4a2 2 0 0 0 -2.81-.1l-23.94 22.28a1 1 0 0 1 -.72.27 1 1 0 0 1 -.7-.33l-8.69-9.56a2 2 0 0 0 -1.48-.65z" fill="#093f68"/><g fill="#dfeaef"><path d="m280.4 190.11h-8.62a1 1 0 0 1 0-2h8.62a1 1 0 0 1 0 2z"/><path d="m262.45 190.11h-37.45a1 1 0 0 1 0-2h37.47a1 1 0 0 1 0 2z"/><path d="m280.4 198.93h-31.74a1 1 0 0 1 0-2h31.74a1 1 0 0 1 0 2z"/><path d="m239.94 198.93h-14.94a1 1 0 1 1 0-2h15a1 1 0 0 1 0 2z"/><path d="m260.42 207.75h-35.42a1 1 0 0 1 0-2h35.44a1 1 0 0 1 0 2z"/></g></svg>