<svg height="32" viewBox="0 0 32 32" width="32" xmlns="http://www.w3.org/2000/svg"><path d="m13 13h6v2h-6z"/><path d="m25.4409 8-1.2722-4.55a2.009 2.009 0 0 0 -1.9231-1.45h-12.4912a2.0089 2.0089 0 0 0 -1.9231 1.4507l-1.2998 4.5493h-2.5315v2h2v7a2.0025 2.0025 0 0 0 2 2v3h2v-3h12v3h2v-3a2.0025 2.0025 0 0 0 2-2v-7h2v-2zm-15.6865-4h12.4914l1.4285 5h-15.3486zm14.2456 9h-2v2h2v2h-16v-2h2v-2h-2v-2h16z"/><path d="m2 16h2v14h-2z"/><path d="m28 16h2v14h-2z"/><path d="m15 21h2v3h-2z"/><path d="m15 26h2v4h-2z"/><path d="m0 0h32v32h-32z" fill="none"/></svg>